# xmcd
#
# Track frame offsets: 
#        150
#        12484
#        26124
#        40582
#        54309
#        66012
#        77377
#        89476
#        102335
#        116192
#        126931
#        139377
#        151107
#        163631
#        176659
#        189494
#        202483
#        213498
#        228002
#        242035
#        254560
#        267285
#        279954
#        292369
#        304619
#        316963
#        328375
#
# Disc length: 4524 seconds
#
# Revision: 1
# Processed by: cddbd v1.5.2PL0 Copyright (c) Steve Scherf et al.
# Submitted via: ExactAudioCopy v1.0b3
#
DISCID=9411aa1b
DTITLE=Champion Jack Dupree - 1951-1953 (New York, Cincinnati) D
DYEAR=2009
DGENRE=Blues
TTITLE0=Deacon's Party (1951)
TTITLE1=My Baby's Comin' Back home (1951)
TTITLE2=Just Plain Tired (1951)
TTITLE3=I'm Gonna Find You Someday (1951)
TTITLE4=Goin' Back To Louisiana (1951)
TTITLE5=Barrel House Mama (1951)
TTITLE6=Old, Old Woman (1951)
TTITLE7=Mean Black Snake (1951)
TTITLE8=The Woman I Love (1951)
TTITLE9=All Night Party (1951)
TTITLE10=Heart Breaking Woman (1951)
TTITLE11=Watchin' My Stuff (1951)
TTITLE12=Ragged And Hungry (1952)
TTITLE13=Somebody Changed The Lock (1952)
TTITLE14=Stumbling Block Blues (1953)
TTITLE15=Highway blues (1953)
TTITLE16=Shake Baby Shake (1953)
TTITLE17=Number Nine Blues (1953)
TTITLE18=Drunk Again (1953)
TTITLE19=Shim Sham Shimmy (1953)
TTITLE20=Ain't No Meat On De Bone (1953)
TTITLE21=The Blues Got Me Rockin' (1953)
TTITLE22=Tongue Tied blues (1953)
TTITLE23=Please Tell Me Baby (1953)
TTITLE24=Walkin' Upside Your Head (1953)
TTITLE25=Rub A Little Boogie (1953)
TTITLE26=Camille (1953)
EXTD=YEAR: 2009
EXTT0=
EXTT1=
EXTT2=
EXTT3=
EXTT4=
EXTT5=
EXTT6=
EXTT7=
EXTT8=
EXTT9=
EXTT10=
EXTT11=
EXTT12=
EXTT13=
EXTT14=
EXTT15=
EXTT16=
EXTT17=
EXTT18=
EXTT19=
EXTT20=
EXTT21=
EXTT22=
EXTT23=
EXTT24=
EXTT25=
EXTT26=
PLAYORDER=
